<?xml version="1.0" encoding="UTF-8" standalone="no"?>
<!-- Created with Inkscape (http://www.inkscape.org/) -->

<svg
   xmlns:dc="http://purl.org/dc/elements/1.1/"
   xmlns:cc="http://creativecommons.org/ns#"
   xmlns:rdf="http://www.w3.org/1999/02/22-rdf-syntax-ns#"
   xmlns:svg="http://www.w3.org/2000/svg"
   xmlns="http://www.w3.org/2000/svg"
   xmlns:sodipodi="http://sodipodi.sourceforge.net/DTD/sodipodi-0.dtd"
   xmlns:inkscape="http://www.inkscape.org/namespaces/inkscape"
   width="72"
   height="72"
   id="svg2"
   version="1.1"
   inkscape:version="0.48.2 r9819"
   sodipodi:docname="rspeak_logo.svg">
  <defs
     id="defs4" />
  <sodipodi:namedview
     id="base"
     pagecolor="#ffffff"
     bordercolor="#666666"
     borderopacity="1.0"
     inkscape:pageopacity="0.0"
     inkscape:pageshadow="2"
     inkscape:zoom="3.959798"
     inkscape:cx="35.565003"
     inkscape:cy="43.002929"
     inkscape:document-units="px"
     inkscape:current-layer="layer1"
     showgrid="false"
     inkscape:window-width="939"
     inkscape:window-height="673"
     inkscape:window-x="0"
     inkscape:window-y="0"
     inkscape:window-maximized="0" />
  <metadata
     id="metadata7">
    <rdf:RDF>
      <cc:Work
         rdf:about="">
        <dc:format>image/svg+xml</dc:format>
        <dc:type
           rdf:resource="http://purl.org/dc/dcmitype/StillImage" />
        <dc:title />
      </cc:Work>
    </rdf:RDF>
  </metadata>
  <g
     inkscape:label="Layer 1"
     inkscape:groupmode="layer"
     id="layer1"
     transform="translate(0,-980.36218)">
    <rect
       style="fill:#b62445;fill-opacity:1;fill-rule:nonzero;stroke:none"
       id="rect2986"
       width="72.478447"
       height="72.478447"
       x="-0.25253814"
       y="0.026631624"
       transform="translate(0,980.36218)" />
    <path
       style="fill:#b62445;fill-opacity:1;stroke:none"
       d="m 17.287945,1008.8922 c 0,5.9083 0,11.8167 0,17.7249 0,-8.1013 39.932303,-15.4811 39.932303,-26.4551 0,-9.28161 -7.108606,-11.26441 -19.841443,-11.26441 -23.863621,0 -20.09086,13.22511 -20.09086,19.99461 z"
       id="path3771"
       inkscape:connector-curvature="0"
       sodipodi:nodetypes="ccccc" />
    <path
       style="fill:none;stroke:#ffffff;stroke-width:7.84627962;stroke-linecap:round;stroke-linejoin:round;stroke-miterlimit:4;stroke-opacity:1;stroke-dasharray:none"
       d="m 15.958115,1010.115 c 0,-1.0588 0,-5.6603 0,-8.8705 0,-10.73096 9.05063,-13.70232 20.519343,-13.70232 11.468715,0 20.702068,0.60759 20.702068,13.70232 0,11.9956 -41.653567,11.3513 -41.653567,33.688 l 0,9.2286"
       id="path2995"
       inkscape:connector-curvature="0"
       sodipodi:nodetypes="cszccc" />
    <path
       sodipodi:nodetypes="ccc"
       inkscape:connector-curvature="0"
       id="path3767"
       d="m 36.971878,1014.4906 c 10.20298,4.1324 20.207752,9.6221 20.207752,20.6913 0,3.1763 0,5.8767 0,8.9792"
       style="fill:none;stroke:#ffffff;stroke-width:7.84627962;stroke-linecap:round;stroke-linejoin:round;stroke-miterlimit:4;stroke-opacity:1;stroke-dasharray:none" />
  </g>
</svg>
