<?xml version="1.0" encoding="UTF-8" standalone="no"?>
<!-- Created with Inkscape (http://www.inkscape.org/) -->

<svg
   xmlns:dc="http://purl.org/dc/elements/1.1/"
   xmlns:cc="http://creativecommons.org/ns#"
   xmlns:rdf="http://www.w3.org/1999/02/22-rdf-syntax-ns#"
   xmlns:svg="http://www.w3.org/2000/svg"
   xmlns="http://www.w3.org/2000/svg"
   xmlns:sodipodi="http://sodipodi.sourceforge.net/DTD/sodipodi-0.dtd"
   xmlns:inkscape="http://www.inkscape.org/namespaces/inkscape"
   width="72"
   height="72"
   id="svg2"
   version="1.1"
   inkscape:version="0.48.2 r9819"
   sodipodi:docname="rspeak_logo.svg"
   inkscape:export-filename="/Users/hashemshawqi/Desktop/RSPEAK/RSpeak/Android_RSpeak_v1/res/drawable-xxhdpi/rspeak_logo.png"
   inkscape:export-xdpi="180"
   inkscape:export-ydpi="180">
  <defs
     id="defs4" />
  <sodipodi:namedview
     id="base"
     pagecolor="#ffffff"
     bordercolor="#666666"
     borderopacity="1.0"
     inkscape:pageopacity="0.0"
     inkscape:pageshadow="2"
     inkscape:zoom="2.8"
     inkscape:cx="35.11105"
     inkscape:cy="25.794225"
     inkscape:document-units="px"
     inkscape:current-layer="layer1"
     showgrid="false"
     inkscape:window-width="939"
     inkscape:window-height="673"
     inkscape:window-x="0"
     inkscape:window-y="0"
     inkscape:window-maximized="0" />
  <metadata
     id="metadata7">
    <rdf:RDF>
      <cc:Work
         rdf:about="">
        <dc:format>image/svg+xml</dc:format>
        <dc:type
           rdf:resource="http://purl.org/dc/dcmitype/StillImage" />
        <dc:title />
      </cc:Work>
    </rdf:RDF>
  </metadata>
  <g
     inkscape:label="Layer 1"
     inkscape:groupmode="layer"
     id="layer1"
     transform="translate(0,-980.36218)">
    <path
       style="fill:#b62445;fill-opacity:1;stroke:#363636;stroke-opacity:1"
       d="m 20.13798,1010.7971 c 0,4.6494 0,9.299 0,13.9487 0,-6.3756 31.424723,-12.1829 31.424723,-20.8189 0,-7.30418 -5.594116,-8.86455 -15.614222,-8.86455 -18.779476,0 -15.810501,10.40745 -15.810501,15.73475 z"
       id="path3771"
       inkscape:connector-curvature="0"
       sodipodi:nodetypes="ccccc" />
    <path
       style="fill:#42977c;fill-opacity:1;fill-rule:nonzero;stroke:none"
       d="m 12.271777,986.36218 47.456448,0 c 3.474564,0 6.271777,2.79722 6.271777,6.27178 l 0,8.73184 -60.0000017,28.6225 0,-37.35434 c 0,-3.47456 2.7972129,-6.27178 6.2717767,-6.27178 z"
       id="rect2987"
       inkscape:connector-curvature="0"
       sodipodi:nodetypes="sssccss" />
    <path
       style="fill:none;stroke:#363636;stroke-width:6.17462920999999998;stroke-linecap:round;stroke-linejoin:round;stroke-miterlimit:4;stroke-opacity:1;stroke-dasharray:none"
       d="m 19.09147,1011.7593 c 0,-0.8331 0,-4.4544 0,-6.9806 0,-8.44468 7.122392,-10.783 16.147696,-10.783 9.025305,0 16.291491,0.47816 16.291491,10.783 0,9.4399 -32.779272,8.9328 -32.779272,26.5107 l 0,7.2626"
       id="path2995"
       inkscape:connector-curvature="0"
       sodipodi:nodetypes="cszccc" />
    <path
       sodipodi:nodetypes="ccc"
       inkscape:connector-curvature="0"
       id="path3767"
       d="m 35.628251,1015.2028 c 8.029234,3.2519 15.902488,7.5721 15.902488,16.283 0,2.4994 0,4.6246 0,7.0662"
       style="fill:none;stroke:#363636;stroke-width:6.17462920999999998;stroke-linecap:round;stroke-linejoin:round;stroke-miterlimit:4;stroke-opacity:1;stroke-dasharray:none" />
  </g>
</svg>
