<?xml version="1.0" encoding="UTF-8" standalone="no"?>
<!-- Created with Inkscape (http://www.inkscape.org/) -->

<svg
   xmlns:dc="http://purl.org/dc/elements/1.1/"
   xmlns:cc="http://creativecommons.org/ns#"
   xmlns:rdf="http://www.w3.org/1999/02/22-rdf-syntax-ns#"
   xmlns:svg="http://www.w3.org/2000/svg"
   xmlns="http://www.w3.org/2000/svg"
   xmlns:sodipodi="http://sodipodi.sourceforge.net/DTD/sodipodi-0.dtd"
   xmlns:inkscape="http://www.inkscape.org/namespaces/inkscape"
   width="72"
   height="72"
   id="svg2"
   version="1.1"
   inkscape:version="0.48.2 r9819"
   sodipodi:docname="rspeak_logo.svg">
  <defs
     id="defs4" />
  <sodipodi:namedview
     id="base"
     pagecolor="#ffffff"
     bordercolor="#666666"
     borderopacity="1.0"
     inkscape:pageopacity="0.0"
     inkscape:pageshadow="2"
     inkscape:zoom="3.959798"
     inkscape:cx="-4.5428137"
     inkscape:cy="35.895751"
     inkscape:document-units="px"
     inkscape:current-layer="layer1"
     showgrid="false"
     inkscape:window-width="939"
     inkscape:window-height="673"
     inkscape:window-x="0"
     inkscape:window-y="0"
     inkscape:window-maximized="0" />
  <metadata
     id="metadata7">
    <rdf:RDF>
      <cc:Work
         rdf:about="">
        <dc:format>image/svg+xml</dc:format>
        <dc:type
           rdf:resource="http://purl.org/dc/dcmitype/StillImage" />
        <dc:title></dc:title>
      </cc:Work>
    </rdf:RDF>
  </metadata>
  <g
     inkscape:label="Layer 1"
     inkscape:groupmode="layer"
     id="layer1"
     transform="translate(0,-980.36218)">
    <rect
       style="fill:#b62445;fill-opacity:1;fill-rule:nonzero;stroke:none"
       id="rect2986"
       width="49.497478"
       height="49.497478"
       x="10.606601"
       y="990.99542"
       rx="5.1739526"
       ry="5.1739526" />
    <path
       style="fill:#b62445;fill-opacity:1;stroke:none"
       d="m 22.26984,1011.1532 c 0,3.8356 0,7.6713 0,11.5071 0,-5.2596 25.924075,-10.0504 25.924075,-17.1747 0,-6.02567 -4.614911,-7.31291 -12.881077,-7.31291 -15.492278,0 -13.042998,8.58571 -13.042998,12.98051 z"
       id="path3771"
       inkscape:connector-curvature="0"
       sodipodi:nodetypes="ccccc" />
    <path
       style="fill:none;stroke:#ffffff;stroke-width:5.0938096;stroke-linecap:round;stroke-linejoin:round;stroke-miterlimit:4;stroke-opacity:1;stroke-dasharray:none"
       d="m 21.406513,1011.947 c 0,-0.6873 0,-3.6747 0,-5.7587 0,-6.96653 5.875674,-8.89555 13.32117,-8.89555 7.445497,0 13.439795,0.39446 13.439795,8.89555 0,7.7875 -27.041521,7.3692 -27.041521,21.8702 l 0,5.9913"
       id="path2995"
       inkscape:connector-curvature="0"
       sodipodi:nodetypes="cszccc" />
    <path
       sodipodi:nodetypes="ccc"
       inkscape:connector-curvature="0"
       id="path3767"
       d="m 35.048662,1014.7877 c 6.62378,2.6827 13.118884,6.2467 13.118884,13.4328 0,2.0619 0,3.8151 0,5.8293"
       style="fill:none;stroke:#ffffff;stroke-width:5.0938096;stroke-linecap:round;stroke-linejoin:round;stroke-miterlimit:4;stroke-opacity:1;stroke-dasharray:none" />
  </g>
</svg>
